<svg xmlns="http://www.w3.org/2000/svg" viewBox="0 0 100 100" fill="none">
  <!-- Faint globe grid lines behind map marker -->
  <circle cx="50" cy="50" r="48" stroke="#00C2FF" stroke-width="1.5" stroke-dasharray="2 4" opacity="0.3"/>
  <ellipse cx="50" cy="50" rx="48" ry="16" stroke="#00C2FF" stroke-width="1.5" stroke-dasharray="2 4" opacity="0.3"/>
  <ellipse cx="50" cy="50" rx="16" ry="48" stroke="#00C2FF" stroke-width="1.5" stroke-dasharray="2 4" opacity="0.3"/>

  <!-- Map marker teardrop -->
  <path d="M50 8 C32.3 8 18 22.3 18 40 C18 64 50 92 50 92 C50 92 82 64 82 40 C82 22.3 67.7 8 50 8 Z" fill="#00C2FF"/>

  <!-- Inner question mark hole -->
  <path d="M50 25 C45.6 25 42 28.6 42 33 L46.6 33 C46.6 31.1 48.1 29.6 50 29.6 C51.9 29.6 53.4 31.1 53.4 33 C53.4 35.8 48 35.5 48 40.5 L48 42 L52 42 L52 40.5 C52 36.5 58 36.5 58 33 C58 28.6 54.4 25 50 25 Z M47.5 45 H52.5 V50 H47.5 V45 Z" fill="#ffffff"/>
</svg>
